<svg x="0" y="0" width="300" height="300" version="1.1" xmlns="http://www.w3.org/2000/svg" xmlns:xlink="http://www.w3.org/1999/xlink"><g data-paper-data="{&quot;description&quot;:&quot;Logo for studionet\n==================\n\nThis logo was generated by MarkMaker and is composed of elements designed by others.\n\nThe font is Smythe designed by Vernon Adams and released under the OFL license via Google Fonts: https://www.google.com/fonts/specimen/Smythe. The font includes this copyright statement: Copyright (c) 2011 by Vernon Adams (vern@newtypography.co.uk) with Reserved Font Names 'Smythe'. All rights reserved.\n\nThe symbol is 'ursa major' designed by James Keuning and released into the public domain at the Noun Project: https://thenounproject.com/term/ursa-major/7872.\n\nMarkMaker uses semantic data from the Princeton University WordNet database http://wordnet.princeton.edu and font descriptions from Google Fonts https://www.google.com/fonts.\n\nThis design is inspired by designs that past users of MarkMaker have liked. As a result, it may be visually similar to past or future designs generated by the system. There is no guarantee that it is unique, original, or suitable in any way for use as a logo.\n\n&quot;}" fill="none" stroke="none" stroke-width="1" stroke-linecap="butt" stroke-linejoin="miter" stroke-miterlimit="none" stroke-dasharray="" stroke-dashoffset="0" font-family="none" font-weight="none" font-size="none" text-anchor="start" mix-blend-mode="normal"><g data-paper-data="{&quot;elementType&quot;:&quot;logo&quot;}" stroke-miterlimit="10" font-family="sans-serif" font-weight="normal" font-size="12"><g data-paper-data="{&quot;elementType&quot;:&quot;text&quot;}"><g data-paper-data="{&quot;baseline&quot;:65.771484375,&quot;elementType&quot;:&quot;row&quot;}"><g data-paper-data="{&quot;baselineProportion&quot;:0.9789244186046512,&quot;fontSize&quot;:100,&quot;baseline&quot;:65.771484375,&quot;elementType&quot;:&quot;word&quot;}"><path d="M61.78189,267.70676c0.25961,0 0.5012,-0.0649 0.72475,-0.19471c0.22356,-0.12981 0.42187,-0.30288 0.59495,-0.51923c0.17308,-0.21634 0.30649,-0.45793 0.40024,-0.72475c0.09375,-0.26682 0.14062,-0.53725 0.14062,-0.81129c0,-0.53365 -0.14423,-1.10696 -0.43269,-1.71993c-0.28846,-0.61297 -0.64543,-1.25119 -1.0709,-1.91464c-0.42548,-0.66345 -0.89062,-1.35575 -1.39542,-2.0769c-0.5048,-0.72115 -0.96994,-1.46753 -1.39542,-2.23916c-0.42548,-0.77163 -0.78244,-1.56489 -1.0709,-2.37978c-0.28846,-0.8149 -0.43269,-1.64782 -0.43269,-2.49877c0,-0.67788 0.14783,-1.30527 0.4435,-1.88219c0.29567,-0.57692 0.68509,-1.07451 1.16826,-1.49277c0.48317,-0.41826 1.03845,-0.74639 1.66585,-0.98436c0.6274,-0.23798 1.27282,-0.35697 1.93628,-0.35697c0.73557,0 1.46032,0.15865 2.17426,0.47596c0.71393,0.3173 1.35215,0.83653 1.91464,1.55768l-2.31488,3.43987l-0.0649,-0.04327c0.08654,-0.23077 0.12981,-0.48317 0.12981,-0.7572c0,-0.27404 -0.04327,-0.55528 -0.12981,-0.84374c-0.08654,-0.28846 -0.21274,-0.54807 -0.3786,-0.77884c-0.16586,-0.23077 -0.36057,-0.41826 -0.58413,-0.56249c-0.22356,-0.14423 -0.47235,-0.21634 -0.74639,-0.21634c-0.30288,0 -0.59495,0.05409 -0.87619,0.16226c-0.28125,0.10817 -0.52644,0.25961 -0.73557,0.45432c-0.20913,0.19471 -0.3786,0.43269 -0.50841,0.71393c-0.12981,0.28125 -0.19471,0.58773 -0.19471,0.91946c0,0.53365 0.14783,1.12138 0.4435,1.7632c0.29567,0.64182 0.66706,1.3197 1.11417,2.03363c0.44711,0.71393 0.92667,1.45672 1.43869,2.22834c0.51201,0.77163 0.99158,1.55046 1.43869,2.33651c0.44711,0.78605 0.8185,1.56489 1.11417,2.33651c0.29567,0.77163 0.4435,1.51801 0.4435,2.23916c0,0.6923 -0.13341,1.3233 -0.40024,1.89301c-0.26682,0.56971 -0.62379,1.05648 -1.0709,1.46032c-0.44711,0.40384 -0.95912,0.71754 -1.53604,0.9411c-0.57692,0.22356 -1.17547,0.33533 -1.79565,0.33533c-0.82211,0 -1.62979,-0.21274 -2.42305,-0.63821c-0.79326,-0.42548 -1.46393,-1.12138 -2.012,-2.08772l2.31488,-2.79084l0.0649,0.0649c-0.12981,0.21634 -0.19471,0.47596 -0.19471,0.77884c0,0.27404 0.05409,0.55168 0.16226,0.83292c0.10817,0.28125 0.2524,0.53725 0.43269,0.76802c0.18029,0.23077 0.40024,0.41826 0.65985,0.56249c0.25961,0.14423 0.54086,0.21634 0.84374,0.21634z" data-paper-data="{&quot;elementType&quot;:&quot;letter&quot;,&quot;baseline&quot;:48.4375,&quot;baselineProportion&quot;:0.9715964740450539,&quot;fontSize&quot;:100}"></path><path d="M82.441,248.43052c0.79326,0 1.46753,-0.01082 2.02282,-0.03245c0.55528,-0.02163 1.01321,-0.04687 1.37378,-0.07572c0.41826,-0.02885 0.7572,-0.0649 1.01682,-0.10817l-0.86538,2.81247c-0.15865,-0.15865 -0.38942,-0.31009 -0.6923,-0.45432c-0.25961,-0.11538 -0.62019,-0.22356 -1.08172,-0.32452c-0.46153,-0.10096 -1.06008,-0.15144 -1.79565,-0.15144l-1.55768,0c-0.01442,0.5048 -0.02163,1.02042 -0.02163,1.54686c0,0.52644 0,1.06369 0,1.61176c0,1.25479 0.00361,2.37618 0.01082,3.36415c0.00721,0.98797 0.01442,1.91825 0.02163,2.79084c0.00721,0.87259 0.01442,1.73796 0.02163,2.59613c0.00721,0.85816 0.01082,1.79205 0.01082,2.80165c0,1.0096 0.16586,1.73075 0.49759,2.16344c0.33173,0.43269 0.70672,0.64903 1.12499,0.64903c0.23077,0 0.46153,-0.07572 0.6923,-0.22716c0.23077,-0.15144 0.4399,-0.36778 0.6274,-0.64903c0.1875,-0.28125 0.33894,-0.61297 0.45432,-0.99518c0.11538,-0.38221 0.17308,-0.80408 0.17308,-1.26561c0,-0.375 -0.04327,-0.68509 -0.12981,-0.93028l0.0649,-0.04327l2.74757,4.65139c-0.93749,0.64903 -1.80647,1.11417 -2.60694,1.39542c-0.80047,0.28125 -1.54686,0.42187 -2.23916,0.42187c-0.70672,0 -1.33773,-0.17668 -1.89301,-0.53004c-0.55528,-0.35336 -1.02403,-0.8185 -1.40624,-1.39542c-0.38221,-0.57692 -0.67427,-1.23677 -0.87619,-1.97955c-0.20192,-0.74278 -0.30288,-1.50359 -0.30288,-2.28243c0,-0.8798 0.00721,-1.65503 0.02163,-2.3257c0.01442,-0.67067 0.02524,-1.30167 0.03245,-1.89301c0.00721,-0.59134 0.01803,-1.17186 0.03245,-1.74157c0.01442,-0.56971 0.02163,-1.20071 0.02163,-1.89301c0,-1.26922 0,-2.3906 0,-3.36415c0,-0.97355 -0.00721,-1.83532 -0.02163,-2.58531c-0.41826,-0.02885 -0.76441,-0.05769 -1.03845,-0.08654c-0.27404,-0.02885 -0.49038,-0.05769 -0.64903,-0.08654c-0.1875,-0.02885 -0.33894,-0.05769 -0.45432,-0.08654l0,-1.29806l2.12017,0c-0.02885,-0.83653 -0.0649,-1.48917 -0.10817,-1.95791c-0.04327,-0.46875 -0.10817,-0.82211 -0.19471,-1.06008c-0.08654,-0.23798 -0.19832,-0.38581 -0.33533,-0.4435c-0.13702,-0.05769 -0.30649,-0.08654 -0.50841,-0.08654l0,-0.10817l4.99754,-2.37978c-0.24519,0.93749 -0.42908,1.90743 -0.55168,2.90983c-0.12259,1.00239 -0.21274,2.04445 -0.27043,3.12617l1.51441,0z" data-paper-data="{&quot;elementType&quot;:&quot;letter&quot;,&quot;baseline&quot;:60.888671875,&quot;baselineProportion&quot;:0.9780392156862745,&quot;fontSize&quot;:100}"></path><path d="M109.50389,259.16117c0,1.83171 0.01442,3.32809 0.04327,4.48914c0.02885,1.16105 0.13702,2.0769 0.32452,2.74757c0.1875,0.67067 0.49038,1.1322 0.90864,1.3846c0.41826,0.2524 1.02403,0.3786 1.81729,0.3786l0,0.10817l-5.86292,1.73075c0.11538,-0.38942 0.18029,-0.84014 0.19471,-1.35215c0.01442,-0.51201 0.02163,-1.04206 0.02163,-1.59013c-0.38942,0.60576 -0.81129,1.09975 -1.26561,1.48196c-0.45432,0.38221 -0.91946,0.68148 -1.39542,0.89783c-0.47596,0.21634 -0.94831,0.36418 -1.41705,0.4435c-0.46875,0.07933 -0.89783,0.11899 -1.28725,0.11899c-1.44229,0 -2.57089,-0.80047 -3.38578,-2.40142c-0.8149,-1.60094 -1.22234,-3.97352 -1.22234,-7.11771c0,-1.96152 -0.01082,-3.57328 -0.03245,-4.83529c-0.02163,-1.26201 -0.1262,-2.25358 -0.3137,-2.97473c-0.1875,-0.72115 -0.48677,-1.22234 -0.89783,-1.50359c-0.41105,-0.28125 -1.01321,-0.42187 -1.80647,-0.42187l0,-0.10817l6.94464,-2.59613c-0.11538,0.1875 -0.21274,0.38942 -0.29206,0.60576c-0.07933,0.21634 -0.14783,0.48317 -0.20553,0.80047c-0.05769,0.3173 -0.10457,0.6923 -0.14062,1.12499c-0.03606,0.43269 -0.0613,0.96634 -0.07572,1.60094c-0.01442,0.63461 -0.02524,1.37739 -0.03245,2.22834c-0.00721,0.85095 -0.01082,1.84613 -0.01082,2.98555c0,1.54325 0.01803,2.94588 0.05409,4.20789c0.03606,1.26201 0.12981,2.34373 0.28125,3.24516c0.15144,0.90143 0.38581,1.60094 0.70312,2.09854c0.3173,0.49759 0.7572,0.74639 1.3197,0.74639c0.51923,0 1.01682,-0.14423 1.49277,-0.43269c0.47596,-0.28846 0.89422,-0.73196 1.25479,-1.33051c0.36057,-0.59855 0.64903,-1.34854 0.86538,-2.24998c0.21634,-0.90143 0.32452,-1.96512 0.32452,-3.19107c0,-1.96152 -0.01082,-3.57328 -0.03245,-4.83529c-0.02163,-1.26201 -0.1262,-2.25358 -0.3137,-2.97473c-0.1875,-0.72115 -0.48677,-1.22234 -0.89783,-1.50359c-0.41105,-0.28125 -1.01321,-0.42187 -1.80647,-0.42187l0,-0.10817l6.94464,-2.59613c-0.11538,0.21634 -0.21634,0.44711 -0.30288,0.6923c-0.08654,0.24519 -0.15865,0.55168 -0.21634,0.91946c-0.05769,0.36778 -0.10457,0.81129 -0.14062,1.33051c-0.03606,0.51923 -0.0649,1.15744 -0.08654,1.91464c-0.02163,0.7572 -0.03606,1.64782 -0.04327,2.67185c-0.00721,1.02403 -0.01082,2.22113 -0.01082,3.59131z" data-paper-data="{&quot;elementType&quot;:&quot;letter&quot;,&quot;baseline&quot;:48.14453125,&quot;baselineProportion&quot;:0.9714285714285714,&quot;fontSize&quot;:100}"></path><path d="M134.01392,255.87275c-0.01442,1.70191 -0.01082,3.35333 0.01082,4.95427c0.02163,1.60094 0.08293,3.23074 0.18389,4.88937c0.05769,0.8798 0.28125,1.62618 0.67067,2.23916c0.38942,0.61297 0.98076,1.04927 1.77402,1.30888l0,0.10817l-4.00236,0c-0.46153,-0.20192 -0.81129,-0.47596 -1.04927,-0.82211c-0.23798,-0.34615 -0.41466,-0.72836 -0.53004,-1.14662c-0.08654,0.15865 -0.21995,0.36778 -0.40024,0.6274c-0.18029,0.25961 -0.41105,0.50841 -0.6923,0.74639c-0.28125,0.23798 -0.62019,0.44711 -1.01682,0.6274c-0.39663,0.18029 -0.86177,0.27764 -1.39542,0.29206c-1.08172,0.01442 -2.02642,-0.26322 -2.8341,-0.83292c-0.80768,-0.56971 -1.48556,-1.36297 -2.03363,-2.37978c-0.54807,-1.01682 -0.95912,-2.22474 -1.23316,-3.62376c-0.27404,-1.39902 -0.41105,-2.92064 -0.41105,-4.56486c0,-1.62979 0.16586,-3.08651 0.49759,-4.37015c0.33173,-1.28364 0.79687,-2.37257 1.39542,-3.26679c0.59855,-0.89422 1.31249,-1.5757 2.1418,-2.04445c0.82932,-0.46875 1.74157,-0.70312 2.73675,-0.70312c0.25961,0 0.54086,0.03245 0.84374,0.09735c0.30288,0.0649 0.60576,0.17308 0.90864,0.32452c0.30288,0.15144 0.58773,0.34615 0.85456,0.58413c0.26682,0.23798 0.48677,0.52283 0.65985,0.85456c0,-1.34133 -0.00721,-2.49517 -0.02163,-3.4615c-0.01442,-0.96634 -0.11178,-1.7632 -0.29206,-2.3906c-0.18029,-0.6274 -0.48317,-1.09254 -0.90864,-1.39542c-0.42548,-0.30288 -1.04927,-0.45432 -1.87137,-0.45432l0,-0.10817l6.29561,-1.73075c-0.05769,0.51923 -0.10096,1.21874 -0.12981,2.09854c-0.02885,0.8798 -0.05409,1.83171 -0.07572,2.85574c-0.02163,1.02403 -0.03606,2.06248 -0.04327,3.11535c-0.00721,1.05287 -0.01082,2.01921 -0.01082,2.89901l-0.02163,4.67303 M127.93466,267.72839c0.76441,0 1.44229,-0.39663 2.03363,-1.18989c0.59134,-0.79326 0.92307,-1.98315 0.99518,-3.56967c0.04327,-0.72115 0.07572,-1.40263 0.09735,-2.04445c0.02163,-0.64182 0.03606,-1.26922 0.04327,-1.88219c0.00721,-0.61297 0.01442,-1.22234 0.02163,-1.82811c0.00721,-0.60576 0.01082,-1.23316 0.01082,-1.88219c0,-1.29806 -0.10817,-2.30767 -0.32452,-3.02881c-0.21634,-0.72115 -0.47235,-1.25119 -0.76802,-1.59013c-0.29567,-0.33894 -0.59855,-0.54447 -0.90864,-0.61658c-0.31009,-0.07211 -0.55889,-0.10817 -0.74639,-0.10817c-2.72593,0 -4.0889,2.7692 -4.0889,8.3076c0,1.52883 0.08654,2.88098 0.25961,4.05645c0.17308,1.17547 0.42187,2.15983 0.74639,2.95309c0.32452,0.79326 0.70672,1.39542 1.14662,1.80647c0.4399,0.41105 0.93388,0.61658 1.48196,0.61658z" data-paper-data="{&quot;elementType&quot;:&quot;letter&quot;,&quot;baseline&quot;:65.771484375,&quot;baselineProportion&quot;:0.9889688553714513,&quot;fontSize&quot;:100}"></path><path d="M147.75002,258.18762c0,-1.34133 -0.00361,-2.48074 -0.01082,-3.41823c-0.00721,-0.93749 -0.03966,-1.71993 -0.09735,-2.34733c-0.05769,-0.6274 -0.14783,-1.12138 -0.27043,-1.48196c-0.12259,-0.36057 -0.30288,-0.631 -0.54086,-0.81129c-0.23798,-0.18029 -0.53725,-0.29206 -0.89783,-0.33533c-0.36057,-0.04327 -0.80047,-0.0649 -1.3197,-0.0649l0,-0.10817l6.29561,-1.73075c-0.15865,1.5721 -0.24158,3.30646 -0.2488,5.20307c-0.00721,1.89661 -0.01082,3.86174 -0.01082,5.89537c0,0.80768 0,1.48556 0,2.03363c0,0.54807 0.00361,1.0673 0.01082,1.55768c0.00721,0.49038 0.02524,1.006 0.05409,1.54686c0.02885,0.54086 0.07211,1.21513 0.12981,2.02282c0.05769,0.77884 0.25961,1.43148 0.60576,1.95791c0.34615,0.52644 0.88701,0.91225 1.62258,1.15744l0,0.10817l-7.81001,0l0,-0.10817c0.73557,-0.24519 1.26201,-0.64903 1.57931,-1.21153c0.3173,-0.56249 0.5048,-1.22595 0.56249,-1.99036c0.02885,-0.66345 0.0613,-1.24398 0.09735,-1.74157c0.03606,-0.49759 0.0649,-0.94831 0.08654,-1.35215c0.02163,-0.40384 0.04327,-0.77884 0.0649,-1.12499c0.02163,-0.34615 0.03966,-0.69951 0.05409,-1.06008c0.01442,-0.36057 0.02524,-0.74639 0.03245,-1.15744c0.00721,-0.41105 0.01082,-0.89062 0.01082,-1.43869 M146.90628,242.65414c0,-0.54807 0.1875,-1.01321 0.56249,-1.39542c0.375,-0.38221 0.83653,-0.57331 1.3846,-0.57331c0.54807,0 1.01321,0.1911 1.39542,0.57331c0.38221,0.38221 0.57331,0.84735 0.57331,1.39542c0,0.54807 -0.1911,1.0096 -0.57331,1.3846c-0.38221,0.375 -0.84735,0.56249 -1.39542,0.56249c-0.54807,0 -1.0096,-0.1875 -1.3846,-0.56249c-0.375,-0.375 -0.56249,-0.83653 -0.56249,-1.3846z" data-paper-data="{&quot;elementType&quot;:&quot;letter&quot;,&quot;baseline&quot;:64.74609375,&quot;baselineProportion&quot;:1,&quot;fontSize&quot;:100}"></path><path d="M162.00535,258.94483c0,-1.77402 0.16947,-3.34612 0.50841,-4.7163c0.33894,-1.37018 0.80047,-2.52401 1.3846,-3.4615c0.58413,-0.93749 1.27282,-1.64782 2.06608,-2.13099c0.79326,-0.48317 1.65142,-0.72475 2.57449,-0.72475c0.8798,0 1.70912,0.24158 2.48795,0.72475c0.77884,0.48317 1.45672,1.1935 2.03363,2.13099c0.57692,0.93749 1.03484,2.09132 1.37378,3.4615c0.33894,1.37018 0.50841,2.94228 0.50841,4.7163c0,1.77402 -0.16947,3.34612 -0.50841,4.7163c-0.33894,1.37018 -0.79687,2.52401 -1.37378,3.4615c-0.57692,0.93749 -1.25479,1.65142 -2.03363,2.1418c-0.77884,0.49038 -1.60816,0.73557 -2.48795,0.73557c-0.92307,0 -1.78123,-0.24519 -2.57449,-0.73557c-0.79326,-0.49038 -1.48196,-1.20431 -2.06608,-2.1418c-0.58413,-0.93749 -1.04566,-2.09132 -1.3846,-3.4615c-0.33894,-1.37018 -0.50841,-2.94228 -0.50841,-4.7163z M165.25051,258.94483c0,2.89901 0.28846,5.08408 0.86538,6.55522c0.57692,1.47114 1.3846,2.20671 2.42305,2.20671c1.05287,0 1.84253,-0.73557 2.36897,-2.20671c0.52644,-1.47114 0.78966,-3.65621 0.78966,-6.55522c0,-2.89901 -0.26322,-5.07687 -0.78966,-6.53358c-0.52644,-1.45672 -1.31609,-2.18507 -2.36897,-2.18507c-1.03845,0 -1.84613,0.72836 -2.42305,2.18507c-0.57692,1.45672 -0.86538,3.63458 -0.86538,6.53358" data-paper-data="{&quot;elementType&quot;:&quot;letter&quot;,&quot;baseline&quot;:48.4375,&quot;baselineProportion&quot;:0.9715964740450539,&quot;fontSize&quot;:100}"></path><path d="M198.28449,256.56505c0,1.0096 0,1.93628 0,2.78002c0,0.84374 0.00721,1.66945 0.02163,2.47714c0.01442,0.80768 0.03606,1.62979 0.0649,2.46632c0.02885,0.83653 0.0649,1.74517 0.10817,2.72593c0.04327,0.54807 0.22356,1.01321 0.54086,1.39542c0.3173,0.38221 0.80768,0.66706 1.47114,0.85456l0,0.10817l-6.74993,0l0,-0.10817c0.5048,-0.15865 0.86898,-0.45072 1.09254,-0.87619c0.22356,-0.42548 0.35697,-0.91225 0.40024,-1.46032c0.04327,-1.35575 0.07572,-2.57089 0.09735,-3.64539c0.02163,-1.07451 0.03245,-1.99397 0.03245,-2.75838c0,-1.52883 -0.01442,-2.92785 -0.04327,-4.19707c-0.02885,-1.26922 -0.11538,-2.35454 -0.25961,-3.25598c-0.14423,-0.90143 -0.35697,-1.60094 -0.63821,-2.09854c-0.28125,-0.49759 -0.68148,-0.74639 -1.20071,-0.74639c-0.47596,0 -0.92307,0.13702 -1.34133,0.41105c-0.41826,0.27404 -0.78244,0.65985 -1.09254,1.15744c-0.31009,0.49759 -0.55889,1.09254 -0.74639,1.78484c-0.1875,0.6923 -0.28125,1.45672 -0.28125,2.29324l0,2.81247c0,1.39902 0.01442,2.78723 0.04327,4.16462c0.02885,1.37739 0.07933,2.7656 0.15144,4.16462c0.04327,0.54807 0.1911,1.01321 0.4435,1.39542c0.2524,0.38221 0.631,0.66706 1.13581,0.85456l0,0.10817l-7.03118,0l0,-0.10817c0.73557,-0.15865 1.26561,-0.45072 1.59013,-0.87619c0.32452,-0.42548 0.50841,-0.91225 0.55168,-1.46032c0.07211,-1.42787 0.12981,-2.77281 0.17308,-4.03481c0.04327,-1.26201 0.0649,-2.49877 0.0649,-3.7103c0,-1.65864 -0.01442,-3.03603 -0.04327,-4.13217c-0.02885,-1.09614 -0.14062,-1.97233 -0.33533,-2.62858c-0.19471,-0.65624 -0.5048,-1.12138 -0.93028,-1.39542c-0.42548,-0.27404 -1.03484,-0.41105 -1.82811,-0.41105l0,-0.10817l5.86292,-2.59613c-0.11538,0.38942 -0.18029,0.84014 -0.19471,1.35215c-0.01442,0.51201 -0.02163,1.04206 -0.02163,1.59013c0.28846,-0.60576 0.60576,-1.09975 0.95191,-1.48196c0.34615,-0.38221 0.69951,-0.68148 1.06008,-0.89783c0.36057,-0.21634 0.71754,-0.36418 1.0709,-0.4435c0.35336,-0.07933 0.68148,-0.11899 0.98436,-0.11899c1.49998,0 2.67906,0.73196 3.53722,2.19589c0.85816,1.46393 1.28725,3.61655 1.28725,6.45786z" data-paper-data="{&quot;elementType&quot;:&quot;letter&quot;,&quot;baseline&quot;:48.4375,&quot;baselineProportion&quot;:1,&quot;fontSize&quot;:100}"></path><path d="M217.40756,261.99528l4.73793,0.43269c0,1.29806 -0.18389,2.41945 -0.55168,3.36415c-0.36778,0.9447 -0.83653,1.73075 -1.40624,2.35815c-0.56971,0.6274 -1.20071,1.09254 -1.89301,1.39542c-0.6923,0.30288 -1.37018,0.45432 -2.03363,0.45432c-0.95191,0 -1.83892,-0.24519 -2.66103,-0.73557c-0.82211,-0.49038 -1.53604,-1.20431 -2.1418,-2.1418c-0.60576,-0.93749 -1.08172,-2.09132 -1.42787,-3.4615c-0.34615,-1.37018 -0.51923,-2.94228 -0.51923,-4.7163c0,-1.77402 0.17308,-3.34612 0.51923,-4.7163c0.34615,-1.37018 0.82211,-2.52401 1.42787,-3.4615c0.60576,-0.93749 1.3197,-1.65142 2.1418,-2.1418c0.82211,-0.49038 1.70912,-0.73557 2.66103,-0.73557c0.79326,0 1.52522,0.21274 2.19589,0.63821c0.67067,0.42548 1.2584,1.05287 1.7632,1.88219c0.5048,0.82932 0.91225,1.86056 1.22234,3.09372c0.31009,1.23316 0.5012,2.65021 0.57331,4.25116l-9.15135,3.20189c0.1875,2.36536 0.60576,4.08529 1.25479,5.1598c0.64903,1.07451 1.47114,1.61176 2.46632,1.61176c0.47596,0 0.87619,-0.09014 1.20071,-0.27043c0.32452,-0.18029 0.59134,-0.41826 0.80047,-0.71393c0.20913,-0.29567 0.36057,-0.6274 0.45432,-0.99518c0.09375,-0.36778 0.14062,-0.74639 0.14062,-1.13581c0,-0.46153 -0.14783,-0.91586 -0.4435,-1.36297c-0.29567,-0.44711 -0.74639,-0.82932 -1.35215,-1.14662l0.02163,-0.10817 M212.75616,259.03137c0.41826,-0.15865 0.93749,-0.36057 1.55768,-0.60576c0.62019,-0.24519 1.39902,-0.58413 2.33651,-1.01682c0.53365,-0.24519 0.99518,-0.49038 1.3846,-0.73557c0.38942,-0.24519 0.73557,-0.45432 1.03845,-0.6274c-0.14423,-2.00479 -0.45072,-3.48314 -0.91946,-4.43505c-0.46875,-0.95191 -1.09975,-1.42787 -1.89301,-1.42787c-1.11057,0 -1.97233,0.73557 -2.58531,2.20671c-0.61297,1.47114 -0.91946,3.65621 -0.91946,6.55522l0,0.08654z" data-paper-data="{&quot;elementType&quot;:&quot;letter&quot;,&quot;baseline&quot;:48.486328125,&quot;baselineProportion&quot;:0.9716242661448141,&quot;fontSize&quot;:100}"></path><path d="M237.78542,248.43052c0.79326,0 1.46753,-0.01082 2.02282,-0.03245c0.55528,-0.02163 1.01321,-0.04687 1.37378,-0.07572c0.41826,-0.02885 0.7572,-0.0649 1.01682,-0.10817l-0.86538,2.81247c-0.15865,-0.15865 -0.38942,-0.31009 -0.6923,-0.45432c-0.25961,-0.11538 -0.62019,-0.22356 -1.08172,-0.32452c-0.46153,-0.10096 -1.06008,-0.15144 -1.79565,-0.15144l-1.55768,0c-0.01442,0.5048 -0.02163,1.02042 -0.02163,1.54686c0,0.52644 0,1.06369 0,1.61176c0,1.25479 0.00361,2.37618 0.01082,3.36415c0.00721,0.98797 0.01442,1.91825 0.02163,2.79084c0.00721,0.87259 0.01442,1.73796 0.02163,2.59613c0.00721,0.85816 0.01082,1.79205 0.01082,2.80165c0,1.0096 0.16586,1.73075 0.49759,2.16344c0.33173,0.43269 0.70672,0.64903 1.12499,0.64903c0.23077,0 0.46153,-0.07572 0.6923,-0.22716c0.23077,-0.15144 0.4399,-0.36778 0.6274,-0.64903c0.1875,-0.28125 0.33894,-0.61297 0.45432,-0.99518c0.11538,-0.38221 0.17308,-0.80408 0.17308,-1.26561c0,-0.375 -0.04327,-0.68509 -0.12981,-0.93028l0.0649,-0.04327l2.74757,4.65139c-0.93749,0.64903 -1.80647,1.11417 -2.60694,1.39542c-0.80047,0.28125 -1.54686,0.42187 -2.23916,0.42187c-0.70672,0 -1.33773,-0.17668 -1.89301,-0.53004c-0.55528,-0.35336 -1.02403,-0.8185 -1.40624,-1.39542c-0.38221,-0.57692 -0.67427,-1.23677 -0.87619,-1.97955c-0.20192,-0.74278 -0.30288,-1.50359 -0.30288,-2.28243c0,-0.8798 0.00721,-1.65503 0.02163,-2.3257c0.01442,-0.67067 0.02524,-1.30167 0.03245,-1.89301c0.00721,-0.59134 0.01803,-1.17186 0.03245,-1.74157c0.01442,-0.56971 0.02163,-1.20071 0.02163,-1.89301c0,-1.26922 0,-2.3906 0,-3.36415c0,-0.97355 -0.00721,-1.83532 -0.02163,-2.58531c-0.41826,-0.02885 -0.76441,-0.05769 -1.03845,-0.08654c-0.27404,-0.02885 -0.49038,-0.05769 -0.64903,-0.08654c-0.1875,-0.02885 -0.33894,-0.05769 -0.45432,-0.08654l0,-1.29806l2.12017,0c-0.02885,-0.83653 -0.0649,-1.48917 -0.10817,-1.95791c-0.04327,-0.46875 -0.10817,-0.82211 -0.19471,-1.06008c-0.08654,-0.23798 -0.19832,-0.38581 -0.33533,-0.4435c-0.13702,-0.05769 -0.30649,-0.08654 -0.50841,-0.08654l0,-0.10817l4.99754,-2.37978c-0.24519,0.93749 -0.42908,1.90743 -0.55168,2.90983c-0.12259,1.00239 -0.21274,2.04445 -0.27043,3.12617l1.51441,0z" data-paper-data="{&quot;elementType&quot;:&quot;letter&quot;,&quot;baseline&quot;:60.888671875,&quot;baselineProportion&quot;:0.9780392156862745,&quot;fontSize&quot;:100}"></path></g></g></g></g><g data-paper-data="{&quot;elementType&quot;:&quot;emblem&quot;}" fill="#ADD8E6" stroke="none" stroke-miterlimit="4" font-family="&quot;Helvetica Neue&quot;, Helvetica, Arial, sans-serif" font-weight="bold" font-size="24"><g><path d="M155.35548,30c-1.36462,0 -2.48549,1.14721 -2.48549,2.56237c0,0.6817 0.27323,1.30899 0.69184,1.76805l-0.81996,1.3068l0.69184,0.43561l0.79433,-1.25557c0.0957,0.05121 0.17937,0.11553 0.28187,0.15381l0,0.07691l0.33311,0.02569c0.15295,0.03242 0.3251,0.04949 0.48684,0.05121c0.00862,0.00009 0.01724,0 0.02569,0c1.36462,0 2.45989,-1.14721 2.45989,-2.56238c0,-1.41516 -1.09527,-2.56237 -2.45989,-2.56237z M154.4331,35.86797l-0.17937,1.61429l0.81996,0.10243l0.15381,-1.63991l-0.79433,-0.07691z M152.30639,36.32911l-0.87121,1.38367l0.69184,0.43561l0.87122,-1.38369z M154.17692,38.30213l-0.17935,1.63991l0.81996,0.07691l0.15381,-1.61429l-0.79435,-0.10243z M150.99966,38.40466l-0.87122,1.4093l0.69185,0.43561l0.87121,-1.40931z M149.69285,40.5058l-0.87121,1.38369l0.69184,0.43561l0.87121,-1.38369z M153.92077,40.76204l-0.17937,1.61431l0.81996,0.10243l0.17937,-1.63991l-0.81996,-0.07691z M148.38603,42.58124l-0.87121,1.38369l0.71746,0.43561l0.84558,-1.38369z M153.66453,43.19622l-0.17937,1.63991l0.81996,0.07691l0.17937,-1.61429l-0.81996,-0.10243z M147.07921,44.68249l-0.84558,1.38369l0.69185,0.43559l0.87121,-1.38367z M153.40828,45.65619l-0.17937,1.61431l0.81996,0.10243l0.17937,-1.63993l-0.81996,-0.07691z M145.79804,46.75791l-0.87121,1.38369l0.69184,0.43559l0.87121,-1.38367z M153.15204,48.09035l-0.17935,1.63991l0.81996,0.07691l0.17937,-1.63991l-0.81997,-0.07691z M144.49122,48.83343l-0.87121,1.40931l0.69184,0.43559l0.87121,-1.4093z M152.89582,50.55022l-0.17937,1.61431l0.81996,0.10243l0.17937,-1.63993l-0.81996,-0.07691z M143.18441,50.93448l-0.87121,1.38369l0.69185,0.43559l0.87121,-1.38367z M199.45416,51.3957c-0.81877,0 -1.48619,0.68834 -1.48619,1.53743c0,0.8491 0.66742,1.53742 1.48619,1.53742c0.07742,0 0.1564,-0.03932 0.23062,-0.05121l0.66621,0.9737l0.69184,-0.46122l-0.61496,-0.87121c0.30642,-0.28166 0.51247,-0.66942 0.51247,-1.12745c0,-0.8491 -0.6674,-1.53743 -1.48617,-1.53743z M152.63958,52.98441l-0.17937,1.63991l0.81996,0.07691l0.17937,-1.63991z M141.87761,53.01011l-0.46124,0.74308c-0.26912,-0.10432 -0.54138,-0.17937 -0.84558,-0.17937c-1.36462,0 -2.48549,1.14723 -2.48549,2.56238c0,0.90599 0.46872,1.69675 1.15305,2.1524l-0.25622,0.66621l0.76871,0.28187l0.23062,-0.61498c0.18537,0.04604 0.39033,0.07691 0.58934,0.07691c0.58801,0 1.11319,-0.20806 1.53742,-0.56371l-0.20498,0.17937l1.10182,1.2043l0.58934,-0.53809l-1.10182,-1.22994c0.34296,-0.43994 0.53811,-1.0045 0.53811,-1.61429c0,-0.80232 -0.36583,-1.50319 -0.92247,-1.97303l0.46124,-0.71748l-0.69184,-0.43559z M185.3611,54.31696c-1.04549,0 -1.87053,0.86319 -1.87053,1.9474c0,1.0842 0.82504,1.97303 1.87053,1.97303c1.04549,0 1.89616,-0.88883 1.89616,-1.97303c0,-1.08422 -0.85067,-1.9474 -1.89616,-1.9474z M201.9909,55.03442c-1.16966,0 -2.10115,0.99065 -2.10115,2.20365c0,0.25736 0.02414,0.51359 0.10243,0.74308l-0.30747,0.20499l0.46122,0.69184l0.28187,-0.17937c0.38792,0.45203 0.93363,0.74308 1.56304,0.74308c1.16968,0 2.12677,-0.99065 2.12677,-2.20363c0,-1.21299 -0.9571,-2.20365 -2.12677,-2.20365z M152.38326,55.44439l-0.17937,1.61431l0.81997,0.10243l0.17935,-1.63993l-0.81996,-0.07691z M152.12702,57.87855l-0.15364,1.63991l0.79433,0.07691l0.17937,-1.63991l-0.81997,-0.07691z M198.99294,58.64726l-1.35805,0.89683l0.46122,0.69185l1.35806,-0.92245z M144.15812,59.56971l-0.61496,0.56373l1.10182,1.2043l0.61496,-0.53809z M138.70028,59.72352l-0.56373,1.53743l0.76873,0.28185l0.56371,-1.53742l-0.76871,-0.28187z M196.96866,60.00539l-1.38367,0.92245l0.46122,0.69184l1.35806,-0.92245l-0.43561,-0.69184z M151.87088,60.33849l-0.15381,1.61431l0.79433,0.10243l0.17937,-1.63993l-0.81996,-0.07691z M194.91869,61.38896l-1.35805,0.92245l0.46122,0.66623l1.35806,-0.92245z M145.79799,61.41465l-0.58936,0.53811l1.10182,1.20432l0.58936,-0.53811z M137.85463,62.02963l-0.56373,1.53742l0.76873,0.30749l0.56371,-1.56306l-0.76871,-0.28185z M192.86879,62.74709l-1.35805,0.92245l0.46122,0.69184l1.35806,-0.92245z M151.61457,62.77279l-0.15381,1.63991l0.81996,0.07691l0.15381,-1.63991z M147.46352,63.23402l-0.61496,0.53809l1.10182,1.20432l0.61496,-0.53811z M190.81889,64.13085l-1.35805,0.92245l0.46122,0.66621l1.35806,-0.92245z M137.00904,64.33583l-0.56373,1.56306l0.76871,0.28187l0.56373,-1.53743z M149.12906,65.0533l-0.61496,0.53809l1.10182,1.20432l0.61496,-0.53809z M151.35833,65.23267l-0.12812,1.46054c-0.16244,0.04225 -0.31325,0.1057 -0.46122,0.17937l-0.02569,0.02569c-0.81244,0.41971 -1.38369,1.27531 -1.38369,2.28052c0,0.91438 0.4837,1.69892 1.1787,2.15238l-0.07691,0.35874l0.81996,0.15381l0.02569,-0.15381c0.1683,0.03759 0.359,0.05121 0.53811,0.05121c1.36462,0 2.45987,-1.14721 2.45987,-2.56237c0,-1.34053 -0.99029,-2.42445 -2.25489,-2.53676l0.12812,-1.33244l-0.81996,-0.07691z M188.7946,65.48888l-1.35806,0.92245l0.43559,0.69185l1.38369,-0.92245z M136.16341,66.66758l-0.56371,1.53743l0.76871,0.28185l0.56373,-1.53742l-0.76873,-0.28187z M186.7447,66.87257l-1.35806,0.92245l0.46122,0.66621l1.35806,-0.92245z M184.6948,68.23063l-1.35806,0.92245l0.46124,0.69184l1.35805,-0.92245z M181.5687,68.51248c-1.10469,0 -2.04112,0.75655 -2.35739,1.79366l-0.12812,0l-0.02569,0.81997l0.02569,0c0.0269,1.39095 1.13778,2.51112 2.48551,2.51112c1.36462,0 2.45987,-1.14721 2.45987,-2.56237c0,-1.41516 -1.09525,-2.56238 -2.45987,-2.56238z M154.53564,68.81997l-0.05121,0.81996l1.63991,0.10243l0.05121,-0.81996z M135.31783,68.97379l-0.56371,1.53742l0.76871,0.28187l0.56373,-1.53742l-0.76873,-0.28187z M156.99553,68.97379l-0.05121,0.81996l1.63991,0.10243l0.05121,-0.81996z M159.4554,69.1276l-0.05121,0.81996l1.63991,0.10243l0.05121,-0.81996z M161.91529,69.28142l-0.05121,0.81997l1.63991,0.07691l0.05121,-0.81997z M164.37516,69.40954l-0.05121,0.81997l1.61431,0.10243l0.05121,-0.81996l-1.61429,-0.10243z M166.80944,69.56337l-0.05121,0.81996l1.63991,0.10243l0.05121,-0.81996z M169.26931,69.71718l-0.05121,0.81996l1.63993,0.10243l0.05121,-0.81996z M171.7292,69.871l-0.05121,0.81996l1.63991,0.07691l0.05121,-0.81996l-1.63991,-0.07691z M174.18907,69.99912l-0.05121,0.81996l1.63993,0.10243l0.05121,-0.81996z M176.64896,70.15293l-0.05121,0.81996l1.63991,0.10243l0.05121,-0.81996z M134.47227,71.28036l-0.58934,1.53743l0.79433,0.28187l0.56371,-1.53743z M150.30774,72.48468l-0.28185,1.61431l0.79433,0.15381l0.30747,-1.61429l-0.81996,-0.15381z M133.60106,73.58652l-0.56371,1.53743l0.76871,0.28185l0.56371,-1.53742z M149.87215,74.89334l-0.30749,1.61429l0.79433,0.15381l0.30749,-1.61429z M132.75548,75.89266l-0.56373,1.53742l0.76873,0.28187l0.56371,-1.53742l-0.76871,-0.28187z M149.41091,77.32758l-0.30749,1.61431l0.79435,0.15381l0.30747,-1.61431z M131.9099,78.19881l-0.56373,1.53742l0.76873,0.28187l0.56371,-1.53743l-0.76871,-0.28185z M148.94969,79.73622l-0.30749,1.61429l0.79433,0.15381l0.30749,-1.61429z M131.06432,80.50493l-0.56373,1.53743l0.76871,0.28185l0.56373,-1.53742z M148.48846,82.14486l-0.30749,1.61429l0.81997,0.15381l0.28185,-1.61431l-0.79433,-0.15364z M130.21872,82.81123l-0.56371,1.53742l0.76871,0.28187l0.56373,-1.53742l-0.76873,-0.28187z M148.02724,84.57926l-0.30749,1.61429l0.81996,0.12812l0.30749,-1.58867l-0.81996,-0.15381z M129.37314,85.1173l-0.56371,1.53742l0.76871,0.30749l0.56373,-1.56306l-0.76873,-0.28185z M147.566,86.98783l-0.30749,1.61429l0.81996,0.15381l0.30749,-1.61429z M128.52756,87.44905l-0.56371,1.53743l0.76871,0.28185l0.56371,-1.53742z M147.10477,89.39646l-0.30747,1.61431l0.81996,0.15381l0.30749,-1.61429l-0.81997,-0.15381z M127.68198,89.75521l-0.58934,1.53742c-0.49298,-0.23051 -1.03842,-0.38435 -1.61431,-0.38435c-2.17328,0 -3.94606,1.84603 -3.94606,4.0998c0,2.25377 1.77278,4.07418 3.94606,4.07418c1.3118,0 2.46234,-0.6678 3.17735,-1.69118l0.76871,0.53811l0.46124,-0.66623l-0.81996,-0.58934c0.22158,-0.51057 0.35872,-1.06932 0.35872,-1.66554c0,-1.64843 -0.94949,-3.07149 -2.30613,-3.71546l0.76871,0.28187l0.56371,-1.53742l-0.76871,-0.28187z M146.66917,91.83074l-0.30749,1.61429l0.79433,0.12812l0.30749,-1.58867l-0.79433,-0.15381z M146.20794,94.23929l-0.30747,1.61431l0.79433,0.15381l0.30749,-1.61431z M145.74672,96.64793l-0.30749,1.61429l0.79433,0.15381l0.30749,-1.61429z M130.55184,97.72413l-0.46122,0.66621l1.35805,0.94801l0.46124,-0.66614l-1.35806,-0.94808z M124.50463,99.08219l-0.46122,1.58858l0.79433,0.23072l0.46122,-1.58867z M145.28549,99.08219l-0.30747,1.58858l0.79433,0.15347l0.30747,-1.58867l-0.79433,-0.15381z M132.57611,99.13297l-0.46122,0.66621l1.33242,0.94806l0.48686,-0.66613l-1.35806,-0.94815z M134.60039,100.54222l-0.48684,0.6663l1.35805,0.94806l0.46124,-0.6663z M123.83842,101.43907l-0.46124,1.58867l0.76873,0.23072l0.46122,-1.58867z M144.82427,101.4908l-0.30749,1.61436l0.81996,0.15347l0.28187,-1.61436z M136.59904,101.95207l-0.46122,0.6663l1.33242,0.94806l0.48686,-0.6663l-1.35806,-0.94806z M138.62332,103.3614l-0.46124,0.66613l1.33244,0.94823l0.46124,-0.6663z M143.64557,103.51487c-1.13426,0 -2.15062,0.54059 -2.81861,1.38364l-0.17937,-0.1276l-0.48686,0.69182l0.23062,0.15347c-0.24327,0.50645 -0.40997,1.06135 -0.40997,1.66557c0,2.08615 1.65264,3.79216 3.66419,3.79216c2.01155,0 3.63857,-1.70601 3.63857,-3.79216c0,-2.08597 -1.62702,-3.76672 -3.63857,-3.76672z M123.14658,103.82249l-0.46124,1.56297l0.79433,0.23072l0.46124,-1.56314l-0.79433,-0.23055z M202.63144,103.9501c-1.36462,0 -2.45989,1.14723 -2.45989,2.56242c0,1.41519 1.09527,2.56225 2.45989,2.56225c0.29282,0 0.58492,-0.0569 0.84558,-0.15347l0.25624,0.35884l0.66621,-0.46127l-0.23062,-0.30746c0.56892,-0.46955 0.94808,-1.1862 0.94808,-1.99872c0,-1.41519 -1.12088,-2.56225 -2.48549,-2.56225z M122.45473,106.17971l-0.46122,1.56297l0.79433,0.23072l0.46122,-1.56314l-0.79433,-0.23055z M121.78852,108.5371l-0.46124,1.58858l0.79435,0.23055l0.43559,-1.58858l-0.76871,-0.23055z M204.88631,109.45947l-0.66621,0.48696l0.79433,1.10162c-0.80585,0.61284 -1.33242,1.60039 -1.33242,2.71623c0,0.87046 0.32292,1.65712 0.84558,2.25479l-0.10243,0.0776l0.53809,0.61508l0.17937,-0.15347c0.51469,0.35539 1.12895,0.5637 1.79366,0.5637c1.7935,0 3.25422,-1.49676 3.25422,-3.35667c0,-1.85991 -1.46072,-3.38236 -3.25422,-3.38236c-0.41926,0 -0.81077,0.10691 -1.1787,0.25624l-0.87121,-1.1787z M121.09675,110.89544l-0.46124,1.58867l0.79433,0.23055l0.46124,-1.58867z M142.44132,110.92131l-0.56371,1.53745l0.76871,0.30746l0.56371,-1.53745z M141.59574,113.25301l-0.56371,1.53745l0.76871,0.28194l0.56371,-1.53745z M120.4049,113.27887l-0.43559,1.56314l0.76871,0.23055l0.46124,-1.58867l-0.79435,-0.20503z M140.72453,115.55936l-0.56373,1.53745l0.76873,0.28194l0.56371,-1.53745l-0.76871,-0.28194z M119.73869,115.63695l-0.46124,1.56314l0.79435,0.23055l0.43559,-1.56297l-0.76871,-0.23072z M203.81018,116.6364l-1.22993,1.07618l0.51247,0.61491l1.25557,-1.07618l-0.53811,-0.61491z M139.87895,117.86622l-0.56373,1.53745l0.76873,0.28194l0.56371,-1.53745l-0.76871,-0.28194z M119.04685,117.99383l-0.46124,1.58884l0.79433,0.20486l0.46124,-1.56297z M201.93965,118.25007l-1.22993,1.05066l0.53809,0.6406l1.22994,-1.07618l-0.53811,-0.61508z M200.09475,119.83891l-1.25557,1.07618l0.53811,0.61491l1.22994,-1.05066z M139.03337,120.17188l-0.56373,1.53745l0.76871,0.28194l0.56373,-1.53745z M118.355,120.35122l-0.43559,1.58884l0.76871,0.23055l0.46124,-1.58867l-0.79435,-0.23072z M198.22421,121.45309l-1.25557,1.07618l0.53811,0.61508l1.25557,-1.07635l-0.53811,-0.61491z M138.18777,122.47806l-0.58934,1.53745l0.76871,0.28176l0.58936,-1.53728l-0.76873,-0.28194z M117.68879,122.7343l-0.46122,1.56297l0.79433,0.23072l0.43559,-1.58867l-0.76871,-0.20503z M196.35368,123.06745l-1.22994,1.05049l0.51248,0.6406l1.25555,-1.07618l-0.53809,-0.61491z M194.48315,124.65611l-1.22994,1.07618l0.53811,0.61491l1.22993,-1.05049l-0.53809,-0.6406z M137.31657,124.78372l-0.56371,1.53745l0.76871,0.28176l0.56373,-1.53745l-0.76873,-0.28176z M116.99695,125.09117l-0.46124,1.56297l0.79433,0.23072l0.46124,-1.56314l-0.79433,-0.23055z M192.63824,126.26978l-1.25557,1.07635l0.53809,0.61491l1.25557,-1.07618l-0.53809,-0.61508z M136.47099,127.0899l-0.56371,1.53728l0.76871,0.28194l0.56371,-1.53745l-0.76871,-0.28176z M116.3051,127.44857l-0.43559,1.56297l0.76871,0.23072l0.46124,-1.56314l-0.79435,-0.23055z M190.76771,127.88414l-1.25557,1.05066l0.53809,0.6406l1.25557,-1.07635z M135.62541,129.3959l-0.58934,1.53745l0.76871,0.28194l0.58934,-1.53745z M188.89716,129.4735l-1.22993,1.07618l0.53809,0.61508l1.22994,-1.05066l-0.53811,-0.6406z M115.63889,129.80665l-0.46122,1.58867l0.79433,0.23072l0.46122,-1.58884z M187.02663,131.08786l-1.22993,1.07618l0.53809,0.61491l1.22994,-1.07618l-0.53811,-0.61491z M134.7542,131.70277l-0.56373,1.51193c-0.28359,-0.07242 -0.56625,-0.1276 -0.87121,-0.1276c-1.84546,0 -3.37467,1.39967 -3.66419,3.22854l-0.15381,-0.02587l-0.07691,0.79425l0.20499,0.02587c0.08087,2.0539 1.68947,3.68981 3.68981,3.68981c2.05199,0 3.71546,-1.71558 3.71546,-3.84346c0,-1.50848 -0.85784,-2.80107 -2.07552,-3.43357l0.56371,-1.53745l-0.76871,-0.28194z M114.94695,132.16455l-0.10243,0.38436c-0.16088,-0.03449 -0.31628,-0.05173 -0.48686,-0.05173c-1.36462,0 -2.48549,1.14723 -2.48549,2.56242c0,0.66147 0.26933,1.26207 0.66621,1.71679l-0.71746,0.74303l0.61496,0.5637l0.7431,-0.79425c0.35143,0.19917 0.74996,0.33315 1.17868,0.33315c1.36462,0 2.45989,-1.14723 2.45989,-2.56242c0,-0.93806 -0.47917,-1.75714 -1.20432,-2.20375l0.12812,-0.4611l-0.79433,-0.23072z M185.18169,132.70221l-1.25557,1.05049l0.53811,0.6406l1.25557,-1.07618z M183.31116,134.29088l-1.22994,1.07618l0.51248,0.61491l1.25557,-1.05049z M179.95444,134.9827c-1.36462,0 -2.48549,1.14723 -2.48549,2.56242c0,1.41502 1.12088,2.56225 2.48549,2.56225c1.36462,0 2.45989,-1.14723 2.45989,-2.56225c0,-1.41519 -1.09527,-2.56242 -2.45989,-2.56242z M117.25314,135.1103l-0.07691,0.81994l1.63991,0.15347l0.07691,-0.81994l-1.63993,-0.15347z M119.71301,135.34085l-0.07691,0.81994l1.61429,0.15347l0.10243,-0.81994l-1.63991,-0.15347z M122.14717,135.57157l-0.07691,0.81994l1.63991,0.15347l0.07691,-0.81994z M124.60704,135.80212l-0.07691,0.81994l1.63993,0.15347l0.07691,-0.81994l-1.63991,-0.15347z M127.04132,136.03267l-0.07691,0.81994l1.63991,0.15347l0.07691,-0.79425l-1.63991,-0.17933z M111.28272,138.10812l-1.12745,1.2043l0.58934,0.5637l1.12745,-1.2043z M177.39197,138.33867l-1.51179,0.6406l0.30747,0.76873l1.51181,-0.6663l-0.30749,-0.74303z M137.11146,138.90237l-0.40999,0.69182l1.40931,0.84563l0.40997,-0.71751z M175.11145,139.31243l-1.48617,0.6406l0.30747,0.74303l1.51181,-0.6406z M109.59154,139.92734l-1.12745,1.17878l0.61498,0.5637l1.10182,-1.2043z M139.23821,140.15789l-0.43559,0.69199l1.4093,0.84546l0.40999,-0.69182z M172.85658,140.28549l-1.51181,0.6406l0.33311,0.7432l1.51179,-0.6406z M170.60168,141.23372l-1.51181,0.66613l0.33311,0.74303l1.51179,-0.6406l-0.3331,-0.76855z M141.33936,141.41306l-0.40997,0.69182l1.38367,0.84563l0.43561,-0.69199z M107.926,141.72051l-1.12745,1.2043l0.58934,0.53818l1.12745,-1.17878z M168.34679,142.2073l-1.51179,0.6406l0.30747,0.76873l1.51181,-0.6406l-0.30749,-0.76873z M143.44051,142.66857l-0.40997,0.71751l1.4093,0.84546l0.40999,-0.71734z M166.06627,143.18106l-1.48617,0.6406l0.30749,0.76873l1.51179,-0.6663z M106.23484,143.51421l-1.12745,1.2043l0.61496,0.5637l1.10182,-1.2043z M145.56728,143.92409l-0.43561,0.71751l1.40931,0.84563l0.43561,-0.71751z M163.81139,144.15481l-1.51181,0.6406l0.33311,0.74303l1.51179,-0.6406l-0.3331,-0.74303z M161.5565,145.12839l-1.51181,0.6406l0.33311,0.7432l1.51181,-0.6406z M147.66843,145.20599l-0.40999,0.69182l1.40931,0.84563l0.40997,-0.71751z M104.56929,145.30773l-1.12745,1.2043l0.58936,0.56387l1.12745,-1.20447z M159.30161,146.07645l-1.51179,0.6663l0.30747,0.74303l1.51181,-0.6406l-0.30749,-0.76873z M149.7952,146.46082l-0.43561,0.69182l1.40931,0.84563l0.43559,-0.69182z M153.89501,146.71706c-0.78354,0 -1.48682,0.4323 -1.87053,1.07618l-0.12812,-0.0776l-0.40999,0.71751l0.25624,0.15347c-0.02311,0.13105 -0.02569,0.27124 -0.02569,0.41006c0,1.24741 0.97513,2.25479 2.17802,2.25479c1.20289,0 2.178,-1.00738 2.178,-2.25479c0,-0.20313 -0.05397,-0.40212 -0.10243,-0.58939l1.38367,-0.58939l-0.33311,-0.76873l-1.38367,0.58939c-0.39667,-0.5568 -1.02359,-0.92254 -1.74241,-0.92254z M102.87811,147.10039l-1.12745,1.2043l0.61496,0.5637l1.10182,-1.2043z M101.21257,148.91977l-1.0762,1.1274c-0.50966,-0.2571 -1.06073,-0.41006 -1.66556,-0.41006c-2.13284,0 -3.86918,1.78559 -3.86918,3.99744c0,0.51542 0.11088,1.0079 0.28187,1.46054l-0.07691,0.0776l0.23062,0.28176c0.63881,1.29794 1.93194,2.17806 3.43357,2.17806c2.13286,0 3.84358,-1.78542 3.84358,-3.99727c0,-1.28138 -0.58336,-2.39309 -1.48619,-3.12612l0.9737,-1.05066l-0.58934,-0.538z M156.20108,149.79162l-0.2306,0.79425l1.56304,0.46127l0.25624,-0.76873l-1.58868,-0.48679z M158.55847,150.50913l-0.23062,0.79425l1.56306,0.46127l0.2306,-0.76873l-1.56304,-0.48679z M160.91586,151.22647l-0.23062,0.79442l1.56304,0.48679l0.23062,-0.79425z M163.27323,151.94398l-0.25624,0.79442l1.58868,0.48679l0.23062,-0.79442z M165.63063,152.66149l-0.25624,0.79425l1.56306,0.48696l0.25622,-0.79442l-1.56304,-0.48679z M167.96237,153.379l-0.2306,0.79425l1.56304,0.48679l0.25624,-0.79425l-1.58868,-0.48679z M170.31977,154.12203l-0.23062,0.76873l1.56306,0.48679l0.23062,-0.79425l-1.56306,-0.46127z M172.67716,154.83955l-0.23062,0.76873l1.56304,0.48679l0.23062,-0.79442z M175.03453,155.55689l-0.25622,0.76873l1.58867,0.48696l0.23062,-0.76873z M94.19163,155.73639l-1.25557,1.07618l0.53809,0.61491l1.25557,-1.07618z M177.39192,156.2744l-0.25624,0.79442l1.56306,0.4611l0.25622,-0.76873z M179.72369,156.99191l-0.23062,0.79425l1.56304,0.46127l0.25624,-0.76873z M92.3211,157.35058l-1.22994,1.07618l0.53809,0.61508l1.22994,-1.07635z M182.08106,157.70942l-0.2306,0.79425l1.56304,0.46127l0.23062,-0.76873z M184.43845,158.42676l-0.23062,0.79442l1.56306,0.48679l0.2306,-0.79425z M90.47617,158.96494l-1.22993,1.07618l0.53809,0.61491l1.22994,-1.07618l-0.53811,-0.61491z M186.79584,159.14427l-0.25624,0.79425l1.58867,0.48696l0.23062,-0.79442z M189.15322,159.86178l-0.25624,0.79425l1.56306,0.48696l0.25624,-0.79442z M88.63127,160.57912l-1.22993,1.07635l0.53809,0.61491l1.22994,-1.07618l-0.53811,-0.61508z M191.48498,160.60499l-0.23062,0.76873l1.56304,0.48696l0.25624,-0.79442z M193.84236,161.3225l-0.2306,0.76873l1.56304,0.48679l0.23062,-0.79425z M84.45459,161.34837c-2.18338,0 -3.94606,1.8356 -3.94606,4.09987c0,1.69816 0.98972,3.14422 2.40864,3.76672l-0.12812,0.81994l0.81996,0.1276l0.10243,-0.69182c0.24257,0.04828 0.48696,0.0776 0.74308,0.0776c2.1834,0 3.97168,-1.8356 3.97168,-4.09987c0,-2.26427 -1.78828,-4.09987 -3.97168,-4.09987z M196.19968,162.04036l-0.23062,0.76873l1.56306,0.48696l0.23062,-0.76873z M198.55707,162.75787l-0.25624,0.79442l1.58867,0.4611l0.23062,-0.76873z M200.91444,163.47538l-0.25622,0.79425l1.56304,0.46127l0.25624,-0.76873z M203.24621,164.19272l-0.23062,0.79442l1.56306,0.46127l0.25622,-0.76873z M205.6036,164.91023l-0.23062,0.79442l1.56304,0.48679l0.23062,-0.79425z M207.96097,165.62774l-0.23062,0.79425l1.56306,0.48696l0.23062,-0.79442z M210.31837,166.34526l-0.25624,0.79425l1.58868,0.48696l0.2306,-0.79442z M215.34062,166.47286c-0.65502,0 -1.22984,0.38385 -1.51181,0.94806l-1.15305,-0.33315l-0.25624,0.76873l1.22994,0.38436c0,0.9703 0.75541,1.74231 1.69116,1.74231c0.93573,0 1.69116,-0.772 1.69116,-1.74231c0,-0.97048 -0.75543,-1.768 -1.69116,-1.768z M221.54157,168.80456c-1.0718,0 -1.98955,0.72734 -2.33177,1.71679l-0.15381,0.28194l0.05121,0.02587c-0.03621,0.17451 -0.05121,0.35229 -0.05121,0.538c0,1.41519 1.12089,2.56242 2.48551,2.56242c1.36462,0 2.45987,-1.14723 2.45987,-2.56242c0,-1.41519 -1.09525,-2.56242 -2.45987,-2.56242z M217.28795,168.88233l-0.38436,0.74303l1.43494,0.76873l0.40997,-0.71751l-1.46054,-0.79425z M82.6608,170.82966l-0.28185,1.61436l0.81996,0.15347l0.28185,-1.63988l-0.81996,-0.1276z M82.25083,173.2643l-0.25624,1.61436l0.79433,0.1276l0.28187,-1.61436z M81.84084,175.6986l-0.25624,1.61436l0.79435,0.1276l0.28185,-1.61436z M81.4565,178.10721l-0.28187,1.61436l0.81996,0.15347l0.25624,-1.61436z M81.04651,180.5415l-0.28187,1.61419l0.81996,0.1276l0.25624,-1.61419z M80.63652,182.9758l-0.25622,1.61419l0.79433,0.1276l0.28187,-1.61419z M80.22655,185.38441l-0.25624,1.61419l0.79433,0.15347l0.28187,-1.61419z M79.84219,187.81853l-0.28187,1.61436l0.81997,0.1276l0.25622,-1.61419l-0.79433,-0.1276z M79.43222,190.253l-0.28187,1.61436l0.81996,0.1276l0.25624,-1.61436z M79.02223,192.66161l-0.20499,1.23c-0.11209,-0.01724 -0.21674,-0.02587 -0.33312,-0.02587c-1.36462,0 -2.48549,1.14723 -2.48549,2.56242c0,1.41519 1.12088,2.56242 2.48549,2.56242c1.36464,0 2.45989,-1.14723 2.45989,-2.56242c0,-0.9891 -0.54116,-1.85336 -1.33244,-2.28048l0.23062,-1.33242l-0.81996,-0.15347z"></path></g></g></g></svg>